<svg xmlns="http://www.w3.org/2000/svg" width="40" height="40" viewBox="0 0 40 40">
  <g transform="translate(-960 -64)">
    <g transform="translate(960 64)" fill="none" stroke="#000" stroke-width="1.4">
      <circle cx="20" cy="20" r="20" stroke="none"/>
      <circle cx="20" cy="20" r="19.3" fill="none"/>
    </g>
    <g transform="translate(968 74)">
      <g>
        <g>
          <path d="M22.243,2.182H4.364v.157L4.14,1.571A2.193,2.193,0,0,0,2.045,0H.545a.545.545,0,0,0,0,1.091h1.5a1.1,1.1,0,0,1,1.047.786l3.4,11.64-1.74,2.174A1.757,1.757,0,0,0,6.12,18.545H21.273a.545.545,0,0,0,0-1.091H6.12a.666.666,0,0,1-.52-1.082l1.753-2.191h10.7a2.192,2.192,0,0,0,1.975-1.253L23.833,4.84A1.771,1.771,0,0,0,24,4.093V3.939A1.758,1.758,0,0,0,22.243,2.182Zm.666,1.911a.667.667,0,0,1-.063.283L19.04,12.464a1.1,1.1,0,0,1-.988.626H7.5L4.636,3.273H22.243a.667.667,0,0,1,.666.666Z" stroke="#000" stroke-width="0.3"/>
          <path d="M87.515,384a2.182,2.182,0,1,0,2.182,2.182A2.184,2.184,0,0,0,87.515,384Zm0,3.273a1.091,1.091,0,1,1,1.091-1.091A1.092,1.092,0,0,1,87.515,387.273Z" transform="translate(-80.969 -364.364)" stroke="#000" stroke-width="0.3"/>
          <path d="M343.515,384a2.182,2.182,0,1,0,2.182,2.182A2.184,2.184,0,0,0,343.515,384Zm0,3.273a1.091,1.091,0,1,1,1.091-1.091A1.092,1.092,0,0,1,343.515,387.273Z" transform="translate(-323.879 -364.364)" stroke="#000" stroke-width="0.3"/>
        </g>
      </g>
    </g>
  </g>
</svg>